<svg width="615" height="743" viewBox="0 0 615 743" fill="none" xmlns="http://www.w3.org/2000/svg">
<g clip-path="url(#clip0_469_200)">
<path d="M104.5 71.25C104.5 74.2337 103.315 77.0952 101.205 79.205C99.0952 81.3147 96.2337 82.5 93.25 82.5C90.2663 82.5 87.4048 81.3147 85.295 79.205C83.1853 77.0952 82 74.2337 82 71.25C82 68.2663 83.1853 65.4048 85.295 63.295C87.4048 61.1853 90.2663 60 93.25 60C96.2337 60 99.0952 61.1853 101.205 63.295C103.315 65.4048 104.5 68.2663 104.5 71.25ZM85.75 71.25C85.75 73.2391 86.5402 75.1468 87.9467 76.5533C89.3532 77.9598 91.2609 78.75 93.25 78.75C95.2391 78.75 97.1468 77.9598 98.5533 76.5533C99.9598 75.1468 100.75 73.2391 100.75 71.25C100.75 69.2609 99.9598 67.3532 98.5533 65.9467C97.1468 64.5402 95.2391 63.75 93.25 63.75C91.2609 63.75 89.3532 64.5402 87.9467 65.9467C86.5402 67.3532 85.75 69.2609 85.75 71.25Z" fill="#FFD700" fill-opacity="0.1"/>
<path d="M115.75 82.5H117.625C119.444 82.4998 121.201 83.1607 122.569 84.3597C123.937 85.5587 124.823 87.2141 125.061 89.0175L136.724 83.835C137.295 83.5806 137.92 83.473 138.543 83.5218C139.166 83.5707 139.767 83.7744 140.291 84.1146C140.816 84.4548 141.246 84.9206 141.545 85.4697C141.843 86.0188 142 86.6338 142 87.2588V115.241C141.999 115.866 141.843 116.48 141.545 117.029C141.247 117.577 140.816 118.043 140.292 118.383C139.769 118.723 139.168 118.927 138.546 118.976C137.923 119.026 137.298 118.919 136.727 118.665L125.061 113.483C124.823 115.286 123.937 116.941 122.569 118.14C121.201 119.339 119.444 120 117.625 120H89.5C87.5109 120 85.6032 119.21 84.1967 117.803C82.7902 116.397 82 114.489 82 112.5V90C82 88.0109 82.7902 86.1032 84.1967 84.6967C85.6032 83.2902 87.5109 82.5 89.5 82.5H115.75ZM138.25 115.237V87.2625L125.125 93.0937V109.406L138.25 115.241V115.237ZM85.75 90V112.5C85.75 113.495 86.1451 114.448 86.8483 115.152C87.5516 115.855 88.5054 116.25 89.5 116.25H117.625C118.62 116.25 119.573 115.855 120.277 115.152C120.98 114.448 121.375 113.495 121.375 112.5V90C121.375 89.0054 120.98 88.0516 120.277 87.3484C119.573 86.6451 118.62 86.25 117.625 86.25H89.5C88.5054 86.25 87.5516 86.6451 86.8483 87.3484C86.1451 88.0516 85.75 89.0054 85.75 90Z" fill="#FFD700" fill-opacity="0.1"/>
<path d="M115.75 82.5C118.734 82.5 121.595 81.3147 123.705 79.205C125.815 77.0952 127 74.2337 127 71.25C127 68.2663 125.815 65.4048 123.705 63.295C121.595 61.1853 118.734 60 115.75 60C112.766 60 109.905 61.1853 107.795 63.295C105.685 65.4048 104.5 68.2663 104.5 71.25C104.5 74.2337 105.685 77.0952 107.795 79.205C109.905 81.3147 112.766 82.5 115.75 82.5ZM108.25 71.25C108.25 69.2609 109.04 67.3532 110.447 65.9467C111.853 64.5402 113.761 63.75 115.75 63.75C117.739 63.75 119.647 64.5402 121.053 65.9467C122.46 67.3532 123.25 69.2609 123.25 71.25C123.25 73.2391 122.46 75.1468 121.053 76.5533C119.647 77.9598 117.739 78.75 115.75 78.75C113.761 78.75 111.853 77.9598 110.447 76.5533C109.04 75.1468 108.25 73.2391 108.25 71.25Z" fill="#FFD700" fill-opacity="0.1"/>
</g>
<path d="M481.562 607.5C481.562 600.354 491.667 594.562 498.812 594.562V590.25C494.238 590.25 489.85 592.067 486.615 595.302C483.38 598.537 481.562 602.925 481.562 607.5Z" fill="#FFD700" fill-opacity="0.1"/>
<path d="M513.121 585.937H521.811C525.779 585.937 529 589.155 529 593.126V621.874C529 625.841 525.783 629.062 521.811 629.062H513.121C508.883 631.883 503.904 633.384 498.812 633.375C493.721 633.383 488.742 631.883 484.504 629.062H467.189C463.221 629.062 460 625.845 460 621.874V593.126C460 589.159 463.217 585.937 467.189 585.937H468.625C468.625 584.794 469.079 583.697 469.888 582.888C470.697 582.079 471.794 581.625 472.938 581.625H477.25C478.394 581.625 479.491 582.079 480.299 582.888C481.108 583.697 481.562 584.794 481.562 585.937H484.504C488.742 583.117 493.721 581.616 498.812 581.625C504.104 581.625 509.02 583.212 513.121 585.937ZM468.625 592.406C468.625 591.834 468.398 591.286 467.993 590.882C467.589 590.477 467.041 590.25 466.469 590.25C465.897 590.25 465.348 590.477 464.944 590.882C464.54 591.286 464.312 591.834 464.312 592.406C464.312 592.978 464.54 593.527 464.944 593.931C465.348 594.335 465.897 594.562 466.469 594.562C467.041 594.562 467.589 594.335 467.993 593.931C468.398 593.527 468.625 592.978 468.625 592.406ZM520.375 607.5C520.375 601.781 518.103 596.297 514.059 592.253C510.016 588.209 504.531 585.937 498.812 585.937C493.094 585.937 487.609 588.209 483.566 592.253C479.522 596.297 477.25 601.781 477.25 607.5C477.25 613.219 479.522 618.703 483.566 622.747C487.609 626.791 493.094 629.062 498.812 629.062C504.531 629.062 510.016 626.791 514.059 622.747C518.103 618.703 520.375 613.219 520.375 607.5Z" fill="#FFD700" fill-opacity="0.1"/>
<path fill-rule="evenodd" clip-rule="evenodd" d="M478.281 33.2975C496.768 20.9046 521.956 21.5182 542.451 30.2433C561.658 38.42 574.936 56.7816 580.64 76.8737C585.49 93.9536 575.45 110.092 569.909 126.948C564.349 143.859 564.767 165.957 548.785 173.769C532.837 181.564 516.246 165.821 498.99 161.611C478.658 156.651 451.122 165.248 440.313 147.306C429.512 129.378 448.509 108.63 455.118 88.7872C461.702 69.0161 460.984 44.8927 478.281 33.2975Z" fill="url(#paint0_radial_469_200)" fill-opacity="0.65"/>
<path fill-rule="evenodd" clip-rule="evenodd" d="M115.111 719.813C95.9475 729.156 72.1261 725.28 53.8184 714.32C36.6617 704.05 26.4628 684.889 23.6766 665.077C21.3081 648.235 32.9456 634.233 40.4081 618.963C47.8953 603.642 50.3878 582.618 66.5752 577.295C82.7282 571.984 96.4136 589.092 112.238 595.343C130.883 602.709 158.138 598.152 166.049 616.591C173.953 635.015 153.214 652.22 144.348 670.186C135.514 688.086 133.042 711.072 115.111 719.813Z" fill="url(#paint1_radial_469_200)" fill-opacity="0.65"/>
<defs>
<radialGradient id="paint0_radial_469_200" cx="0" cy="0" r="1" gradientUnits="userSpaceOnUse" gradientTransform="translate(508.202 105.982) rotate(63.3473) scale(78.7894 79.2834)">
<stop stop-color="#001F3F" stop-opacity="0.65"/>
<stop offset="1" stop-color="#FFD700" stop-opacity="0.09"/>
</radialGradient>
<radialGradient id="paint1_radial_469_200" cx="0" cy="0" r="1" gradientUnits="userSpaceOnUse" gradientTransform="translate(96.2222 646.927) rotate(-108.807) scale(75.4728 75.946)">
<stop stop-color="#001F3F" stop-opacity="0.65"/>
<stop offset="1" stop-color="#FFD700" stop-opacity="0.09"/>
</radialGradient>
<clipPath id="clip0_469_200">
<rect width="60" height="60" fill="white" transform="translate(82 60)"/>
</clipPath>
</defs>
</svg>
